<svg xmlns="http://www.w3.org/2000/svg" viewBox="0 0 56.4 71.69"><defs><style>.cls-1{fill:#333;}.cls-2{fill:#fed9ae;}.cls-3{fill:#f5cda5;}.cls-4{fill:#ffd7af;}.cls-5{fill:#ffe1b9;}.cls-6{fill:#c85123;}</style></defs><title>Asset 7</title><g id="Layer_2" data-name="Layer 2"><g id="Layer_1-2" data-name="Layer 1"><path class="cls-1" d="M28.49,60.13S54,66,51.86,60.13,48.61,39.5,48.61,23.75,41.36,0,28.49,0h-.3C15.31,0,8.06,8,8.06,23.75S6.94,54.25,4.81,60.13s23.37,0,23.37,0Z"/><path class="cls-2" d="M50.68,60.52A4.08,4.08,0,0,0,49,58.78c-2.34-1.25-7.82-4.22-11.41-6.55a4.07,4.07,0,0,1-1.25-1.29,19.47,19.47,0,0,1-1.38-6H21.48a19.52,19.52,0,0,1-1.38,6,4.08,4.08,0,0,1-1.25,1.29c-3.59,2.32-9.07,5.3-11.41,6.55a4.08,4.08,0,0,0-1.71,1.75L0,71.69H56.4Z"/><path class="cls-3" d="M34.92,44.9H21.55c-.05.52-.12,1-.18,1.45a10.81,10.81,0,0,0,13.73,0C35,45.9,35,45.42,34.92,44.9Z"/><path class="cls-4" d="M15.4,34s-2.15,2.29-3.19-3.17c-1.12-5.83-1.08-9,.92-9.67a1.2,1.2,0,0,1,1.65.66Z"/><path class="cls-2" d="M28.24,47.21c7.88,0,13.92-8.25,13.92-21.92,0-17-5-21-13.92-21s-13.92,4-13.92,21C14.32,39,20.36,47.21,28.24,47.21Z"/><path class="cls-4" d="M41.28,34s2.15,2.29,3.2-3.17c1.12-5.83,1.08-9-.92-9.67a1.2,1.2,0,0,0-1.65.66Z"/><path class="cls-5" d="M28.41,4.29V47.2c7.79-.12,13.74-8.34,13.74-21.91C42.15,8.36,37.22,4.35,28.41,4.29Z"/><path class="cls-1" d="M13.62,28.75H15a11.25,11.25,0,0,1,6.56-10.19c4.25-2.12,11.69-3,15.5-8.69a44.48,44.48,0,0,1,4.5,18.88h1.37S45,16.81,41.31,9.88,28.5,3.75,28.19,3.75s-8.81-.12-12.06,6.5S11.81,18.31,13.62,28.75Z"/><polygon class="cls-6" points="44.27 56.27 39.31 68.96 28.17 68.96 28.13 68.96 16.98 68.96 12.02 56.27 9.11 57.88 11.47 71.69 28.13 71.69 28.17 71.69 44.83 71.69 47.18 57.88 44.27 56.27"/><circle class="cls-6" cx="28.41" cy="59.04" r="1.9"/><circle class="cls-6" cx="32.16" cy="57.5" r="1.5"/><circle class="cls-6" cx="24.66" cy="57.5" r="1.5"/><circle class="cls-6" cx="21.81" cy="55.77" r="1.4"/><circle class="cls-6" cx="35.05" cy="55.77" r="1.4"/><circle class="cls-6" cx="19.49" cy="53.68" r="1.25"/><circle class="cls-6" cx="37.33" cy="53.68" r="1.25"/></g></g></svg>