<svg xmlns="http://www.w3.org/2000/svg" viewBox="0 0 73.11 70.68"><defs><style>.cls-1{fill:#edbe70;}.cls-2{fill:#ffd7af;}.cls-3{fill:#f5cda5;}.cls-4{fill:#fed9ae;}.cls-5{fill:#ffe1b9;}.cls-6{fill:#df695c;}</style></defs><title>Asset 4</title><g id="Layer_2" data-name="Layer 2"><g id="Layer_1-2" data-name="Layer 1"><path class="cls-1" d="M36.58,1c2.62-3.12,22.25.38,20.12,24.25-.83,9.3-11.25,13.5-11.25,13.5H36.58Z"/><path class="cls-1" d="M52.17,6.62c1.69-5,17.69-6.37,17.69,12.74,0,7.23-3.75,8.73-3.75,15.48s5.62,7.5,7,5.75c0,0-13.75,13.75-21.53-5.92Z"/><path class="cls-1" d="M20.94,6.62C19.25,1.6,3.25.25,3.25,19.36,3.25,26.6,7,28.1,7,34.85s-5.62,7.5-7,5.75c0,0,13.75,13.75,21.53-5.92Z"/><path class="cls-2" d="M36.58,57.51,45,50.83s-1.21-1.63-1.73-6.68H29.89c-.52,5.05-1.73,6.68-1.73,6.68l8.42,6.68h0Z"/><path class="cls-3" d="M43.26,44.15H29.89c-.05.52-.12,1-.18,1.45a10.81,10.81,0,0,0,13.73,0C43.38,45.15,43.31,44.67,43.26,44.15Z"/><path class="cls-1" d="M36.62,1C34-2.15,14.37,1.35,16.5,25.22c.83,9.3,11.25,13.5,11.25,13.5h8.87Z"/><path class="cls-4" d="M36.58,46.46c7.87,0,13.92-8.25,13.92-21.92,0-17-5-21-13.92-21s-13.92,4-13.92,21C22.66,38.21,28.7,46.46,36.58,46.46Z"/><path class="cls-5" d="M36.75,3.54v42.9c7.79-.12,13.74-8.34,13.74-21.91C50.49,7.61,45.56,3.59,36.75,3.54Z"/><path class="cls-2" d="M23.73,33.29s-2.15,2.29-3.2-3.17c-1.12-5.83-1.08-9,.92-9.67a1.2,1.2,0,0,1,1.65.66Z"/><path class="cls-2" d="M49.62,33.29s2.15,2.29,3.2-3.17c1.12-5.83,1.08-9-.92-9.67a1.2,1.2,0,0,0-1.65.66Z"/><path class="cls-1" d="M36.53,11.48c-3.9,0-7.82-3-9.73-2.06s-4,2.64-3.5,16.79c0,0-8.92-11.58,2.25-20.12,3.07-2.35,9.45-4,11.08-3.91h0Z"/><path class="cls-1" d="M36.68,11.48c3.9,0,7.82-3,9.73-2.06s4,2.64,3.5,16.79c0,0,8.92-11.58-2.25-20.12-3.07-2.35-9.45-4-11.08-3.91h0Z"/><path class="cls-6" d="M61.14,58.34a5,5,0,0,0-2.35-2.87l-15.07-8.3s-.33,5.68-7,5.68-7.31-5.68-7.31-5.68l-14.76,8.3a5,5,0,0,0-2.32,2.85L8.46,70.68H65Z"/></g></g></svg>