<svg xmlns="http://www.w3.org/2000/svg" viewBox="0 0 56.31 72.46"><defs><style>.cls-1{fill:#393939;}.cls-2{fill:#ffd7af;}.cls-3{fill:#f0f0f0;}.cls-4{fill:#f5cda5;}.cls-5{fill:#fed9ae;}.cls-6{fill:#ffe1b9;}.cls-7{fill:#dc843a;}.cls-8{fill:#48525e;}</style></defs><title>Asset 1</title><g id="Layer_2" data-name="Layer 2"><g id="Layer_1-2" data-name="Layer 1"><path class="cls-1" d="M0,72.46,3.62,58.64a5,5,0,0,1,2.2-3L17,48.71l1,9.38,7.75,14.38Z"/><path class="cls-1" d="M56.31,72.46,52.69,58.64a5,5,0,0,0-2.2-3L39.31,48.71l-1,9.38L30.56,72.46Z"/><path class="cls-2" d="M15.14,33.78S13,36.07,11.95,30.61c-1.12-5.83-1.08-9,.92-9.67a1.2,1.2,0,0,1,1.65.66Z"/><path class="cls-3" d="M36.61,45,38,46a3,3,0,0,1,1.23,2.42v6.81a10,10,0,0,1-1.46,5.2l-7.29,12H28V46.94Z"/><path class="cls-3" d="M19.53,45,18.1,46a3,3,0,0,0-1.23,2.42v6.81a10,10,0,0,0,1.46,5.2l7.29,12h2.54V46.93Z"/><path class="cls-2" d="M19.53,42v4.13A5,5,0,0,0,21.37,50L25,52.94a5,5,0,0,0,6.3,0L34.92,50a5,5,0,0,0,1.86-3.89V41.6Z"/><path class="cls-4" d="M19.53,45a11,11,0,0,0,17.25-.38V41.6L19.53,42Z"/><path class="cls-5" d="M28,46.94c7.88,0,13.92-8.25,13.92-21.92C41.9,8,36.9,4,28,4S14.07,8,14.07,25C14.07,38.69,20.11,46.94,28,46.94Z"/><path class="cls-2" d="M41,33.78s2.15,2.29,3.2-3.17c1.12-5.83,1.08-9-.92-9.67a1.2,1.2,0,0,0-1.65.66Z"/><path class="cls-6" d="M28.16,4v42.9C35.94,46.81,41.9,38.59,41.9,25,41.9,8.1,37,4.08,28.16,4Z"/><path class="cls-7" d="M14.53,29.24C8.62,26.4,4.36,0,25.78,0,31.61,0,34,2.67,34,2.67c4.52-4.08,20.4,5.6,7.38,24.88,0,0,1.29-9-3.55-12.78-3.44-2.69-4-4.6-4-4.6s-2.32,4.1-9.12,5.83S16.2,22.09,14.53,29.24Z"/><path class="cls-1" d="M24.43,29h-5a2.5,2.5,0,0,1-2.5-2.5v-.62a2.5,2.5,0,0,1,2.5-2.5h5a2.5,2.5,0,0,1,2.5,2.5v.63A2.5,2.5,0,0,1,24.43,29Zm-5-4.62a1.5,1.5,0,0,0-1.5,1.5v.63a1.5,1.5,0,0,0,1.5,1.5h5a1.5,1.5,0,0,0,1.5-1.5v-.62a1.5,1.5,0,0,0-1.5-1.5Z"/><path class="cls-1" d="M36.8,29h-5a2.5,2.5,0,0,1-2.5-2.5v-.62a2.5,2.5,0,0,1,2.5-2.5h5a2.5,2.5,0,0,1,2.5,2.5v.63A2.5,2.5,0,0,1,36.8,29Zm-5-4.62a1.5,1.5,0,0,0-1.5,1.5v.63A1.5,1.5,0,0,0,31.8,28h5a1.5,1.5,0,0,0,1.5-1.5v-.62a1.5,1.5,0,0,0-1.5-1.5Z"/><rect class="cls-1" x="26.43" y="24.42" width="3.38" height="1"/><polygon class="cls-8" points="31.45 72.46 29.8 62.9 28.16 62.9 28.11 62.9 26.47 62.9 24.82 72.46 28.11 72.46 28.16 72.46 31.45 72.46"/><path class="cls-8" d="M28.16,64.08l2.52-1.65a2,2,0,0,0,.78-2.38L30.29,57a2,2,0,0,0-1.87-1.29h-.52A2,2,0,0,0,26,57l-1.17,3.09a2,2,0,0,0,.78,2.38l2.52,1.65h0Z"/></g></g></svg>