<svg xmlns="http://www.w3.org/2000/svg" viewBox="0 0 56.67 78.63"><defs><style>.cls-1{fill:#ffd7af;}.cls-2{fill:#f5cda5;}.cls-3{fill:#fed9ae;}.cls-4{fill:#ffe1b9;}.cls-5{fill:#969696;}.cls-6{fill:#89ccdd;}.cls-7{fill:#f0f0f0;}</style></defs><title>Asset 17</title><g id="Layer_2" data-name="Layer 2"><g id="Layer_1-2" data-name="Layer 1"><path class="cls-1" d="M28.46,63l8.42-6.68s-1.21-1.63-1.73-6.68H21.78C21.26,54.69,20,56.32,20,56.32L28.46,63h0Z"/><path class="cls-2" d="M35.15,49.64H21.78c-.05.52-.12,1-.18,1.45a10.81,10.81,0,0,0,13.73,0C35.26,50.63,35.2,50.16,35.15,49.64Z"/><path class="cls-1" d="M15.62,38.78s-2.15,2.29-3.19-3.17c-1.12-5.83-1.08-9,.92-9.67a1.2,1.2,0,0,1,1.65.66Z"/><path class="cls-3" d="M28.46,51.94c7.87,0,13.92-8.25,13.92-21.92,0-17-5-21-13.92-21S14.55,13,14.55,30C14.55,43.69,20.59,51.94,28.46,51.94Z"/><path class="cls-1" d="M41.5,38.78s2.15,2.29,3.19-3.17c1.12-5.83,1.08-9-.92-9.67a1.2,1.2,0,0,0-1.65.66Z"/><path class="cls-4" d="M28.64,9v42.9c7.79-.12,13.74-8.34,13.74-21.91C42.38,13.1,37.44,9.08,28.64,9Z"/><path class="cls-5" d="M28.33,5.42C12.46,5.42,11.24,21,12,26.58a12.93,12.93,0,0,0,2.58,5.5s.58-7.59,5.5-9.75,12.11-1,15.58-6.25c4.08,6.22,5.9,8.83,6.7,16C46.87,27.33,50.46,5.58,28.33,5.42Z"/><ellipse class="cls-5" cx="28.33" cy="5.42" rx="8.96" ry="5.42"/><path class="cls-6" d="M56.67,78.63,53,67.88a5,5,0,0,0-2.3-2.74L42,60.31l-13.6-.1h-.09l-13.6.1L6,65.14a5,5,0,0,0-2.3,2.74L0,78.63H56.67Z"/><path class="cls-7" d="M19.87,54.56l-5.5,5.07s5.79,14.08,13.92.58Z"/><path class="cls-7" d="M36.79,54.56l5.5,5.07s-5.79,14.08-13.92.58Z"/></g></g></svg>