<svg xmlns="http://www.w3.org/2000/svg" viewBox="0 0 56.76 76.14"><defs><style>.cls-1{fill:#cc5525;}.cls-2{fill:#ffd7af;}.cls-3{fill:#f5cda5;}.cls-4{fill:#fed9ae;}.cls-5{fill:#ffe1b9;}.cls-6{fill:#e9635e;}.cls-7{fill:#f0f0f0;}.cls-8{fill:#fff;}</style></defs><title>Asset 15</title><g id="Layer_2" data-name="Layer 2"><g id="Layer_1-2" data-name="Layer 1"><path class="cls-1" d="M33.2,5.13C36.88-.91,57.13-5.79,56.75,16c-.33,19.13-11.08,21.74-7.33,29,1.6,3.11,7.33-1.86,7.33-1.86S55.56,52,47.63,52,38.7,44.37,39.29,37.7Z"/><path class="cls-2" d="M25.48,61.44l8.42-6.68s-1.21-1.63-1.73-6.68H18.79c-.52,5.05-1.73,6.68-1.73,6.68l8.42,6.68h0Z"/><path class="cls-3" d="M32.16,48.08H18.79c-.05.52-.12,1-.18,1.45a10.81,10.81,0,0,0,13.73,0C32.28,49.08,32.22,48.6,32.16,48.08Z"/><path class="cls-2" d="M12.53,37.22s-2.15,2.29-3.2-3.17c-1.12-5.83-1.08-9,.92-9.67a1.2,1.2,0,0,1,1.65.66Z"/><path class="cls-4" d="M25.37,50.39c7.88,0,13.92-8.25,13.92-21.92,0-17-5-21-13.92-21s-13.92,4-13.92,21C11.46,42.14,17.5,50.39,25.37,50.39Z"/><path class="cls-2" d="M38.42,37.22s2.15,2.29,3.2-3.17c1.12-5.83,1.08-9-.92-9.67a1.2,1.2,0,0,0-1.65.66Z"/><path class="cls-5" d="M25.55,7.47v42.9c7.79-.12,13.74-8.34,13.74-21.91C39.29,11.54,34.35,7.52,25.55,7.47Z"/><path class="cls-1" d="M24.89,4.22C9,4.22,7.79,19.77,8.52,25.38a12.93,12.93,0,0,0,2.58,5.5s.58-7.59,5.5-9.75,12.11-1,15.58-6.25c4.08,6.22,5.9,8.83,6.7,16C43.42,26.13,47,4.38,24.89,4.22Z"/><path class="cls-6" d="M48.52,65.58a5,5,0,0,0-2.25-3.08L34.5,55.31l-9,3.22-9-3.22L4.82,62.5a5,5,0,0,0-2.25,3.08L0,76.14H51.09Z"/><path class="cls-7" d="M34,52.71l-1-.16-7.5,5L18,52.52l-1,.19L13.6,58.12s3.8,8.69,11.87,2.43c8.08,6.26,11.87-2.43,11.87-2.43Z"/><circle class="cls-8" cx="25.33" cy="63.53" r="0.83"/><circle class="cls-8" cx="25.33" cy="67.12" r="0.83"/><circle class="cls-8" cx="25.33" cy="70.72" r="0.83"/><circle class="cls-8" cx="25.33" cy="74.32" r="0.83"/></g></g></svg>