<svg xmlns="http://www.w3.org/2000/svg" viewBox="0 0 57.01 71.81"><defs><style>.cls-1{fill:#393939;}.cls-2{fill:#ffd7af;}.cls-3{fill:#f5cda5;}.cls-4{fill:#fed9ae;}.cls-5{fill:#ffe1b9;}.cls-6{fill:#416687;}.cls-7{fill:#e9635e;}</style></defs><title>Asset 14</title><g id="Layer_2" data-name="Layer 2"><g id="Layer_1-2" data-name="Layer 1"><rect class="cls-1" x="14.26" y="33.34" width="28.49" height="10.42"/><path class="cls-2" d="M15.66,33.78s-2.15,2.29-3.19-3.17c-1.12-5.83-1.08-9,.92-9.67a1.2,1.2,0,0,1,1.65.66Z"/><path class="cls-2" d="M20.05,42v4.13A5,5,0,0,0,21.89,50l3.6,2.93a5,5,0,0,0,6.3,0L35.44,50a5,5,0,0,0,1.86-3.89V41.6Z"/><path class="cls-3" d="M20.05,45a11,11,0,0,0,17.25-.38V41.6L20.05,42Z"/><path class="cls-4" d="M28.5,46.94c7.87,0,13.92-8.25,13.92-21.92,0-17-5-21-13.92-21S14.59,8,14.59,25C14.59,38.69,20.63,46.94,28.5,46.94Z"/><path class="cls-2" d="M41.54,33.78s2.15,2.29,3.2-3.17c1.12-5.83,1.08-9-.92-9.67a1.2,1.2,0,0,0-1.65.66Z"/><path class="cls-5" d="M28.68,4v42.9c7.79-.12,13.74-8.34,13.74-21.91C42.42,8.1,37.48,4.08,28.68,4Z"/><path class="cls-1" d="M15.05,29.24C9.14,26.4,4.88,0,26.3,0c5.83,0,8.25,2.67,8.25,2.67,4.52-4.08,20.4,5.6,7.38,24.88,0,0,1.29-9-3.55-12.78-3.44-2.69-4-4.6-4-4.6s-2.32,4.1-9.12,5.83S16.72,22.09,15.05,29.24Z"/><path class="cls-1" d="M24.95,29h-5a2.5,2.5,0,0,1-2.5-2.5v-.62a2.5,2.5,0,0,1,2.5-2.5h5a2.5,2.5,0,0,1,2.5,2.5v.63A2.5,2.5,0,0,1,24.95,29Zm-5-4.62a1.5,1.5,0,0,0-1.5,1.5v.63a1.5,1.5,0,0,0,1.5,1.5h5a1.5,1.5,0,0,0,1.5-1.5v-.62a1.5,1.5,0,0,0-1.5-1.5Z"/><path class="cls-1" d="M37.32,29h-5a2.5,2.5,0,0,1-2.5-2.5v-.62a2.5,2.5,0,0,1,2.5-2.5h5a2.5,2.5,0,0,1,2.5,2.5v.63A2.5,2.5,0,0,1,37.32,29Zm-5-4.62a1.5,1.5,0,0,0-1.5,1.5v.63a1.5,1.5,0,0,0,1.5,1.5h5a1.5,1.5,0,0,0,1.5-1.5v-.62a1.5,1.5,0,0,0-1.5-1.5Z"/><rect class="cls-1" x="26.95" y="24.42" width="3.38" height="1"/><path class="cls-6" d="M15.67,52.18,4.57,59.37a5,5,0,0,0-2.12,2.95L0,71.81H28.51v-18Z"/><polygon class="cls-7" points="20.06 45.85 19.19 45.85 15.67 52.18 24.06 60.43 28.51 53.78 20.06 45.85"/><path class="cls-6" d="M41.33,52.16l11.1,7.19a5,5,0,0,1,2.12,2.95L57,71.79H28.49v-18Z"/><polygon class="cls-7" points="36.94 45.83 37.82 45.83 41.33 52.16 32.94 60.41 28.49 53.76 36.94 45.83"/><rect class="cls-1" x="25.67" y="54.4" width="5.87" height="5.87" rx="2" ry="2"/><polygon class="cls-1" points="26.64 59.77 19.19 62.35 19.19 52.33 26.64 54.91 26.64 59.77"/><polygon class="cls-1" points="30.56 59.77 38.02 62.35 38.02 52.33 30.56 54.91 30.56 59.77"/></g></g></svg>