<svg xmlns="http://www.w3.org/2000/svg" viewBox="0 0 60.67 71.26"><defs><style>.cls-1{fill:#ffd7af;}.cls-2{fill:#f5cda5;}.cls-3{fill:#fed9ae;}.cls-4{fill:#ffe1b9;}.cls-5{fill:#8b6d5f;}.cls-6{fill:#f95f51;}</style></defs><title>Asset 12</title><g id="Layer_2" data-name="Layer 2"><g id="Layer_1-2" data-name="Layer 1"><path class="cls-1" d="M51.51,53.51c-7.1-3.08-10.51-6.82-12-9a5,5,0,0,1-.89-2.84v-2.9L22,39.27v2.48a5,5,0,0,1-.9,2.86c-1.5,2.14-4.91,5.86-12,8.91C-1.43,58.09.07,65.93.07,71.26H60.59C60.59,65.93,62.09,58.09,51.51,53.51Z"/><path class="cls-2" d="M22,42.25a10.67,10.67,0,0,0,8.14,4,10.79,10.79,0,0,0,8.48-4.36V38.82L22,39.22Z"/><path class="cls-1" d="M17.33,30.82s-2.15,2.29-3.19-3.17c-1.12-5.83-1.08-9,.92-9.67a1.2,1.2,0,0,1,1.65.66Z"/><path class="cls-3" d="M30.17,44C38,44,44.09,35.74,44.09,22.07c0-17-5-21-13.92-21s-13.92,4-13.92,21C16.25,35.74,22.29,44,30.17,44Z"/><path class="cls-1" d="M43.21,30.82s2.15,2.29,3.19-3.17c1.12-5.83,1.08-9-.92-9.67a1.2,1.2,0,0,0-1.65.66Z"/><path class="cls-4" d="M30.34,1.07V44c7.79-.12,13.74-8.34,13.74-21.9C44.09,5.14,39.15,1.13,30.34,1.07Z"/><path class="cls-5" d="M30.23,0h-.11C14.86.08,14,14.89,14.46,17.25a68.61,68.61,0,0,0,2.29,7.54C18,20,15.7,10.91,19.52,9.47s8.26,1,10.57,1,6.76-2.46,10.57-1S42.13,20,43.43,24.79a68.59,68.59,0,0,0,2.29-7.54C46.16,14.89,45.48.08,30.23,0Z"/><path class="cls-6" d="M47.69,51.61c-1.15-.63-4.87-3.42-4.87-3.42s5,18.22-12.53,18.24S17.84,48.18,17.84,48.18,14.13,51,13,51.61V71.26l17.31-.08,17.4.08Z"/></g></g></svg>