<svg xmlns="http://www.w3.org/2000/svg" viewBox="0 0 56.75 74.21"><defs><style>.cls-1{fill:#393939;}.cls-2{fill:#ffd7af;}.cls-3{fill:#7e3728;}.cls-4{fill:#f5cda5;}.cls-5{fill:#fed9ae;}.cls-6{fill:#ffe1b9;}.cls-7{fill:#c85123;}</style></defs><title>Asset 8</title><g id="Layer_2" data-name="Layer 2"><g id="Layer_1-2" data-name="Layer 1"><path class="cls-1" d="M54.42,64.45a5,5,0,0,0-1.84-2.82l-2.37-1.79-6.08-5L41.6,52.58H15.15l-2.53,2.25-6.08,5L4.18,61.63a5,5,0,0,0-1.84,2.82L0,74.21H56.75Z"/><path class="cls-2" d="M15.15,35.25S13,37.54,12,32.08c-1.12-5.83-1.08-9,.92-9.67a1.2,1.2,0,0,1,1.65.66Z"/><path class="cls-3" d="M19.66,46.5l-1.79,1.92-2.72,3a1,1,0,0,0,.1,1.44C16.93,54.24,21,57.32,25,58.08c0,0-8.12.5-12.65-2.15a2.16,2.16,0,0,0-2.44,0l-4.38,3.3-.75,1.92.73-.55A1,1,0,0,1,7,60.9a13.75,13.75,0,0,0,12.5,7.27c9.92,0,20.73-10.57,24.33-11.42,2.44-.57,5.5,2.43,5.5,2.43l-.21-.52a4.1,4.1,0,0,0-1.43-1.8l-2.84-2a4.1,4.1,0,0,0-3-.7v-.28a4.11,4.11,0,0,0-.93-2.6l-2.35-2.87-2-1.64Z"/><path class="cls-2" d="M19.54,42.47V44c0,2.76.91,9.12,8.83,9,7.12-.11,8.42-6.24,8.42-9v-1.9Z"/><path class="cls-4" d="M19.66,46.5a11,11,0,0,0,8.33,4A11.4,11.4,0,0,0,36.74,46l.05-2.9-17.25.4Z"/><path class="cls-5" d="M28,48.42c7.88,0,13.92-8.25,13.92-21.92,0-17-5-21-13.92-21s-13.92,4-13.92,21C14.08,40.17,20.12,48.42,28,48.42Z"/><path class="cls-2" d="M41,35.25s2.15,2.29,3.2-3.17c1.12-5.83,1.08-9-.92-9.67a1.2,1.2,0,0,0-1.65.66Z"/><path class="cls-6" d="M28.17,5.5v42.9C36,48.28,41.91,40.06,41.91,26.5,41.91,9.57,37,5.55,28.17,5.5Z"/><path class="cls-7" d="M17.54,4.17C26-2.17,32.88,5.42,44.29,0c0,0-4.06,5-8,5.5,0,0,5.4,2.58,12.06-5.5a15.48,15.48,0,0,1-8.84,11.66s3.56.25,7.71-4.33c0,0-1.37,11.08-18.87,11.08C19.21,18.42,17,13,17,13s-2.25,3.17-1.75,15.25H13.88s-5.17-9.75,0-16.33C13.86,9,14.21,6.67,17.54,4.17Z"/><path class="cls-7" d="M40,13s2.25,3.17,1.75,15.25H43.1s5.17-9.75,0-16.33Z"/></g></g></svg>