<svg xmlns="http://www.w3.org/2000/svg" viewBox="0 0 56.58 73.46"><defs><style>.cls-1{fill:#ffd7af;}.cls-2{fill:#f5cda5;}.cls-3{fill:#fed9ae;}.cls-4{fill:#ffe1b9;}.cls-5{fill:#584a49;}.cls-6{fill:#db7b13;}</style></defs><title>Asset 3</title><g id="Layer_2" data-name="Layer 2"><g id="Layer_1-2" data-name="Layer 1"><path class="cls-1" d="M15.35,34.71S13.2,37,12.16,31.54c-1.12-5.83-1.08-9,.92-9.67a1.2,1.2,0,0,1,1.65.66Z"/><path class="cls-1" d="M19.67,42.93v6.8a5,5,0,0,0,2.26,4.18C24.43,55.56,28.14,58,28.22,58s3.86-2.43,6.41-4.08a5,5,0,0,0,2.29-4.2V42.53Z"/><path class="cls-2" d="M19.67,46a11,11,0,0,0,17.25-.38V42.53l-17.25.4Z"/><path class="cls-3" d="M28.19,47.87c7.88,0,13.92-8.25,13.92-21.92,0-17-5-21-13.92-21s-13.92,4-13.92,21C14.28,39.62,20.32,47.87,28.19,47.87Z"/><path class="cls-1" d="M41.23,34.71s2.15,2.29,3.2-3.17c1.12-5.83,1.08-9-.92-9.67a1.2,1.2,0,0,0-1.65.66Z"/><path class="cls-4" d="M28.37,5v42.9c7.79-.12,13.74-8.34,13.74-21.91C42.11,9,37.17,5,28.37,5Z"/><path class="cls-5" d="M28.12,0C13,0,8.42,14.56,14.2,28h1.65S14.56,17.63,20,11.5c0,0-2,9.44,8.33,9.44,0,0-6.44-6-2.87-9.56a11.63,11.63,0,0,0,11.44,8.56A7.64,7.64,0,0,1,35,12.19S41.42,21.88,41.23,28h1.56C48,14.88,45.48,0,28.12,0Z"/><path class="cls-6" d="M52.6,60.85a5,5,0,0,0-1.94-2.62L36.91,48.79s-2,6.82-8.62,6.82-8.62-6.82-8.62-6.82L5.92,58.23A5,5,0,0,0,4,60.85L0,73.46H56.58Z"/></g></g></svg>