<svg xmlns="http://www.w3.org/2000/svg" viewBox="0 0 51.37 77.33"><defs><style>.cls-1{fill:#ffd7af;}.cls-2{fill:#f5cda5;}.cls-3{fill:#fed9ae;}.cls-4{fill:#ffe1b9;}.cls-5{fill:#cc5525;}.cls-6{fill:#e6e6e6;}.cls-7{fill:#f0f0f0;}.cls-8{fill:#48525e;}</style></defs><title>Asset 2</title><g id="Layer_2" data-name="Layer 2"><g id="Layer_1-2" data-name="Layer 1"><path class="cls-1" d="M25.69,63l8.42-6.68s-1.21-1.63-1.73-6.68H19c-.52,5.05-1.73,6.68-1.73,6.68L25.69,63Z"/><path class="cls-2" d="M32.37,49.64H19c-.05.52-.12,1-.18,1.45a10.81,10.81,0,0,0,13.73,0C32.49,50.63,32.43,50.16,32.37,49.64Z"/><path class="cls-1" d="M12.85,38.78s-2.15,2.29-3.19-3.17c-1.12-5.83-1.08-9,.92-9.67a1.2,1.2,0,0,1,1.65.66Z"/><path class="cls-3" d="M25.69,51.94c7.87,0,13.92-8.25,13.92-21.92,0-17-5-21-13.92-21S11.77,13,11.77,30C11.77,43.69,17.81,51.94,25.69,51.94Z"/><path class="cls-1" d="M38.73,38.78s2.15,2.29,3.2-3.17c1.12-5.83,1.08-9-.92-9.67a1.2,1.2,0,0,0-1.65.66Z"/><path class="cls-4" d="M25.86,9v42.9C33.65,51.81,39.6,43.59,39.6,30,39.6,13.1,34.67,9.08,25.86,9Z"/><path class="cls-5" d="M25.56,5.42C9.69,5.42,8.46,21,9.2,26.58a12.92,12.92,0,0,0,2.58,5.5s.58-7.59,5.5-9.75,12.11-1,15.58-6.25c4.08,6.22,5.9,8.83,6.7,16C44.09,27.33,47.69,5.58,25.56,5.42Z"/><ellipse class="cls-5" cx="25.56" cy="5.42" rx="8.96" ry="5.42"/><polygon class="cls-6" points="25.69 59.33 14.5 57.83 25.69 77.33 36.87 57.83 25.69 59.33"/><polygon class="cls-7" points="18.53 52.72 17.27 53.33 14.5 57.83 22.75 68.46 25.69 59.33 18.34 53.54 18.53 52.72"/><polygon class="cls-7" points="32.84 52.72 34.1 53.33 36.87 57.83 28.62 68.46 25.69 59.33 33.03 53.54 32.84 52.72"/><path class="cls-8" d="M14.5,57.83,4.84,63.69a5,5,0,0,0-2.26,3.09L0,77.33H25.69Z"/><path class="cls-8" d="M36.87,57.83l9.66,5.86a5,5,0,0,1,2.26,3.09l2.57,10.55H25.69Z"/></g></g></svg>