<svg xmlns="http://www.w3.org/2000/svg" viewBox="0 0 57.01 67.78"><defs><style>.cls-1{fill:#ffd7af;}.cls-2{fill:#f5cda5;}.cls-3{fill:#fed9ae;}.cls-4{fill:#ffe1b9;}.cls-5{fill:#48525e;}.cls-6{fill:#67849f;}.cls-7{fill:#969696;}</style></defs><title>Asset 5</title><g id="Layer_2" data-name="Layer 2"><g id="Layer_1-2" data-name="Layer 1"><path class="cls-1" d="M15.66,29.75S13.51,32,12.47,26.58c-1.12-5.83-1.08-9,.92-9.67a1.2,1.2,0,0,1,1.65.66Z"/><path class="cls-1" d="M20.05,38V42.1A5,5,0,0,0,21.89,46l3.6,2.93a5,5,0,0,0,6.3,0L35.44,46a5,5,0,0,0,1.86-3.89V37.58Z"/><path class="cls-2" d="M20.05,41a11,11,0,0,0,17.25-.38V37.57L20.05,38Z"/><path class="cls-3" d="M28.5,42.92c7.87,0,13.92-8.25,13.92-21.92,0-17-5-21-13.92-21S14.59,4,14.59,21C14.59,34.67,20.63,42.92,28.5,42.92Z"/><path class="cls-1" d="M41.54,29.75s2.15,2.29,3.2-3.17c1.12-5.83,1.08-9-.92-9.67a1.2,1.2,0,0,0-1.65.66Z"/><path class="cls-4" d="M28.68,0V42.9c7.79-.12,13.74-8.34,13.74-21.9C42.42,4.07,37.48.05,28.68,0Z"/><path class="cls-5" d="M15.67,48.16,4.57,55.35a5,5,0,0,0-2.12,2.95L0,67.78H28.51v-18Z"/><polygon class="cls-6" points="20.06 41.82 19.19 41.82 15.67 48.16 24.06 56.41 28.51 49.75 20.06 41.82"/><path class="cls-5" d="M41.33,48.13l11.1,7.19a5,5,0,0,1,2.12,2.95L57,67.76H28.49v-18Z"/><polygon class="cls-6" points="36.94 41.8 37.82 41.8 41.33 48.13 32.94 56.38 28.49 49.73 36.94 41.8"/><path class="cls-7" d="M14.59,21s-3.53-2.1-1.12-11.89C15,2.68,19.19,3,19.19,3S15.06,9.53,14.59,21Z"/><path class="cls-7" d="M42.44,21S46,18.9,43.56,9.11C42,2.68,37.83,3,37.83,3S42,9.53,42.44,21Z"/></g></g></svg>