<svg xmlns="http://www.w3.org/2000/svg" viewBox="0 0 57.25 76.97"><defs><style>.cls-1{fill:#c24e46;}.cls-2{fill:#ffd7af;}.cls-3{fill:#584a49;}.cls-4{fill:#f5cda5;}.cls-5{fill:#fed9ae;}.cls-6{fill:#ffe1b9;}.cls-7{fill:#f95f51;}</style></defs><title>Asset 10</title><g id="Layer_2" data-name="Layer 2"><g id="Layer_1-2" data-name="Layer 1"><path class="cls-1" d="M45.63,58.06l7.12,5.16a5,5,0,0,1,1.93,2.9L57.25,77H28.66l.19-20.25Z"/><path class="cls-1" d="M11.62,58.06,4.5,63.22a5,5,0,0,0-1.93,2.9L0,77H28.58l-.19-20.25Z"/><path class="cls-2" d="M42,58.71c-3.51-2.06-5-8.1-5.06-8.46V46.05l-16.62.44v3.68s-1.44,6.38-5.07,8.5c-1.93,1.13,2,4.85,6,8.07l1.55,3.56L28.58,77l4.58-6.75,1.52-2.39C39.15,64.41,44.18,60,42,58.71Z"/><path class="cls-3" d="M14.25,8S19.5-3.61,35.38,1.14L31.88,4s12-3.23,16,8.52L44.25,11s4.5,2.63,5,12.87l-3.62-2.62s6.06,13.2-2.87,21.38c-4.84,4.42-7.12,4.63-7.37,5s-14.25,0-14.25,0S9.75,45.52,9.25,28.39l-2.5,3.12S5,23.14,8.5,18.14L5.21,20S4.88,10.34,14.25,8Z"/><path class="cls-4" d="M20.35,49.48a10.66,10.66,0,0,0,8.14,4A10.79,10.79,0,0,0,37,49.1V46.05l-16.62.4Z"/><path class="cls-2" d="M15.55,38s-2.15,2.29-3.19-3.17c-1.12-5.83-1.08-9,.92-9.67a1.2,1.2,0,0,1,1.65.66Z"/><path class="cls-5" d="M28.39,51.22c7.88,0,13.92-8.25,13.92-21.92,0-17-5-21-13.92-21s-13.92,4-13.92,21C14.47,43,20.51,51.22,28.39,51.22Z"/><path class="cls-2" d="M41.43,38s2.15,2.29,3.19-3.17c1.12-5.83,1.08-9-.92-9.67a1.2,1.2,0,0,0-1.65.66Z"/><path class="cls-6" d="M28.56,8.3v42.9c7.79-.12,13.74-8.34,13.74-21.91C42.31,12.37,37.37,8.35,28.56,8.3Z"/><path class="cls-3" d="M40.88,11.77c-4.06-5.63-16.13-6.44-23.19.5a14.41,14.41,0,0,0-1.15,1.2l-.41-1.7a14.55,14.55,0,0,0-2.22,5.56A16.45,16.45,0,0,0,12,24.21s.48.06,1.29.07a43.54,43.54,0,0,0,.27,4.81h1a22,22,0,0,1,.46-4.87c3.72-.28,9.94-1.75,13.62-8.07l-2.5,7.06s7.63-1.81,8.06-10c0,0,2.81,6.37,1.88,8.44a8.77,8.77,0,0,0,3.75-5.75s2.78,9,2.52,13.19h1S44.94,17.39,40.88,11.77Z"/><path class="cls-3" d="M28.58,63.1h0c-10.14,0-12-6-12.11-6.27l.72-.21c.07.23,1.84,5.73,11.4,5.73S40,56.68,40,56.62l.72.21c-.08.26-2,6.26-12.11,6.27Z"/><polygon class="cls-7" points="18.49 55.02 16.33 55.02 11.62 58.06 28.58 76.97 17.4 56.73 18.49 55.02"/><polygon class="cls-7" points="38.75 55.02 40.91 55.02 45.63 58.06 28.66 76.97 39.85 56.73 38.75 55.02"/><circle class="cls-1" cx="28.58" cy="62.73" r="2.18"/></g></g></svg>