<svg xmlns="http://www.w3.org/2000/svg" viewBox="0 0 56.4 70.78"><defs><style>.cls-1{fill:#edbe70;}.cls-2{fill:#fed9ae;}.cls-3{fill:#f5cda5;}.cls-4{fill:#c24e46;}.cls-5{fill:#ffe1b9;}.cls-6{fill:#ffd7af;}</style></defs><title>Asset 13</title><g id="Layer_2" data-name="Layer 2"><g id="Layer_1-2" data-name="Layer 1"><path class="cls-1" d="M46.79,44.06a43.32,43.32,0,0,1-37.42,0l4.06-13.53a33.89,33.89,0,0,0,29.3,0Z"/><path class="cls-1" d="M28,1c2.62-3.12,22.25.38,20.12,24.25-.83,9.3-11.25,13.5-11.25,13.5H28Z"/><path class="cls-1" d="M28.08,1C25.45-2.15,5.83,1.35,8,25.22c.83,9.3,11.25,13.5,11.25,13.5h8.87Z"/><path class="cls-2" d="M50.68,59.62A4.09,4.09,0,0,0,49,57.87c-2.34-1.25-7.82-4.22-11.41-6.55A4.07,4.07,0,0,1,36.3,50a19.5,19.5,0,0,1-1.38-6H21.48a19.5,19.5,0,0,1-1.38,6,4.06,4.06,0,0,1-1.25,1.29c-3.59,2.32-9.07,5.3-11.41,6.55a4.07,4.07,0,0,0-1.71,1.75L0,70.78H56.4Z"/><path class="cls-3" d="M34.92,44H21.55c-.05.52-.12,1-.18,1.45a10.81,10.81,0,0,0,13.73,0C35,45,35,44.52,34.92,44Z"/><polygon class="cls-4" points="44.27 55.37 28.17 66.05 28.13 66.05 12.02 55.37 9.11 56.97 11.46 70.78 28.13 70.78 28.17 70.78 44.83 70.78 47.18 56.97 44.27 55.37"/><path class="cls-2" d="M28,46.45c7.87,0,13.92-8.25,13.92-21.92,0-17-5-21-13.92-21s-13.92,4-13.92,21C14.11,38.2,20.15,46.45,28,46.45Z"/><path class="cls-5" d="M28.2,3.54v42.9C36,46.32,41.95,38.1,41.95,24.54,41.95,7.61,37,3.59,28.2,3.54Z"/><path class="cls-6" d="M15.19,33.29S13,35.58,12,30.12c-1.12-5.83-1.08-9,.92-9.67a1.21,1.21,0,0,1,1.65.66Z"/><path class="cls-6" d="M41.07,33.29s2.15,2.29,3.2-3.17c1.12-5.83,1.08-9-.92-9.67a1.2,1.2,0,0,0-1.65.66Z"/><path class="cls-1" d="M39.11,6.09c-3-2.33-9.34-3.94-11-3.91h0c-1.7,0-8,1.58-11,3.91-11.17,8.54-2.25,22.12-2.25,22.12-.5-14.15,1.58-15.8,3.5-16.79s5.83,2.06,9.73,2.06h.15c3.9,0,7.81-3,9.73-2.06s4,2.64,3.5,16.79C41.36,28.21,50.28,14.63,39.11,6.09Z"/></g></g></svg>