<svg xmlns="http://www.w3.org/2000/svg" viewBox="0 0 61.28 73.36"><defs><style>.cls-1{fill:#c06345;}.cls-2{fill:#ffd7af;}.cls-3{fill:#f5cda5;}.cls-4{fill:#fed9ae;}.cls-5{fill:#ffe1b9;}.cls-6{fill:#ed7064;}.cls-7{fill:#f0f0f0;}</style></defs><title>Asset 9</title><g id="Layer_2" data-name="Layer 2"><g id="Layer_1-2" data-name="Layer 1"><path class="cls-1" d="M55.5,22.61c4.67-2.42,1.33-12.25-5-8.75,4.67-6.42-3.67-10.08-5.75-7.67,0-7.08-11-8.18-14.17-2.34V3.7c-3.21-5.83-14-4.58-14,2.5-2.08-2.42-10.42,1.25-5.75,7.67-6.33-3.5-9.67,6.33-5,8.75C-.89,21.2-3.3,35,6.86,35c-4.33,2.67,0,15.75,9.42,10.83-.41,4.84,5.79,9.41,9.72,5.3l.2-.21,4.38-17V28.65l4.51,22.3.2.21c3.93,4.11,10.13-.46,9.72-5.3C54.41,50.78,58.75,37.7,54.41,35,64.58,35,62.16,21.2,55.5,22.61Z"/><path class="cls-2" d="M30.53,60.72,38.95,54s-1.21-1.63-1.73-6.68H23.85C23.33,52.41,22.12,54,22.12,54l8.42,6.68h0Z"/><path class="cls-3" d="M37.22,47.36H23.85c-.05.52-.12,1-.18,1.45a10.81,10.81,0,0,0,13.73,0C37.33,48.35,37.27,47.88,37.22,47.36Z"/><path class="cls-4" d="M30.53,49.66c7.87,0,13.92-8.25,13.92-21.92,0-17-5-21-13.92-21s-13.92,4-13.92,21C16.62,41.41,22.66,49.66,30.53,49.66Z"/><path class="cls-5" d="M30.71,6.75v42.9c7.79-.12,13.74-8.34,13.74-21.91C44.45,10.82,39.51,6.8,30.71,6.75Z"/><path class="cls-1" d="M43.49,12C36.24,2.73,30.9,6.56,30.55,6.83c-.35-.27-5.69-4.1-12.94,5.22-7.5,9.64-.33,21.48-.33,21.48h1s-.33-8.18,1.17-12,4.67-5.54,6-5.54,2.55,2,5.09,2h0c2.53,0,3.76-2,5.08-2s4.5,1.71,6,5.54,1.17,12,1.17,12h1S51,21.68,43.49,12Z"/><path class="cls-2" d="M17.69,36.5s-2.15,2.29-3.2-3.17c-1.12-5.83-1.08-9,.92-9.67a1.21,1.21,0,0,1,1.65.66Z"/><path class="cls-2" d="M43.57,36.5s2.15,2.29,3.2-3.17c1.12-5.83,1.08-9-.92-9.67a1.2,1.2,0,0,0-1.65.66Z"/><path class="cls-6" d="M54,61.2a5,5,0,0,0-3-2.92L39,54l-8.46,5.45L22.12,54,10.18,58.28a5,5,0,0,0-3,2.92L2.51,73.36H58.64Z"/><polygon class="cls-7" points="46.91 56.84 41.7 70.63 30.55 70.63 30.51 70.63 19.36 70.63 14.19 56.85 11.12 57.95 13.85 73.36 30.51 73.36 30.55 73.36 47.21 73.36 49.82 57.87 46.91 56.84"/></g></g></svg>