<?xml version="1.0" encoding="utf-8"?>
<!-- Generator: Adobe Illustrator 21.0.2, SVG Export Plug-In . SVG Version: 6.00 Build 0)  -->
<svg version="1.1" id="Capa_1" xmlns="http://www.w3.org/2000/svg" xmlns:xlink="http://www.w3.org/1999/xlink" x="0px" y="0px"
	 viewBox="0 0 58 58" style="enable-background:new 0 0 58 58;" xml:space="preserve">
<style type="text/css">
	.st0{fill:#7383BF;}
</style>
<path class="st0" d="M51,50c0-3-1.7-5.8-4.4-7.2L37,38c-1.2-0.6-2-1.9-2-3.3V31c0.3-0.3,0.6-0.7,0.9-1.2c1.3-1.8,2.3-3.9,3-6
	c1.2-0.4,2.1-1.5,2.1-2.9v-4c0-0.9-0.4-1.7-1-2.2V9c0,0,1.2-9-11-9C16.8,0,18,9,18,9v5.8c-0.6,0.6-1,1.3-1,2.2v4
	c0,1.1,0.6,2,1.4,2.5c1,4.4,3.6,7.5,3.6,7.5v3.7c0,1.3-0.7,2.6-1.9,3.2l-8.9,4.9c-2.6,1.4-4.2,4.1-4.2,7V52c0,0,0,0.7,0,1
	c0,2.8,9.9,5,22,5s22-2.2,22-5c0-0.3,0-1,0-1V50z"/>
</svg>
